<mxfile host="app.diagrams.net" modified="2022-09-30T17:04:08.568Z" agent="5.0 (Macintosh; Intel Mac OS X 10_15_7) AppleWebKit/537.36 (KHTML, like Gecko) Chrome/105.0.0.0 Safari/537.36" etag="uyq6tkKSbJeee_r6IMJr" version="20.3.7" type="github">
  <diagram id="8vji63VKpBlKnXmn7Ga9" name="Page-1">
    <mxGraphModel dx="-343" dy="1778" grid="1" gridSize="10" guides="1" tooltips="1" connect="1" arrows="1" fold="1" page="1" pageScale="1" pageWidth="827" pageHeight="1169" math="0" shadow="0">
      <root>
        <mxCell id="0" />
        <mxCell id="1" parent="0" />
        <mxCell id="pm2VZgvuKRMVonqQj59v-1" value="search_stores" style="rounded=1;whiteSpace=wrap;html=1;fontFamily=Helvetica;fontSize=14;fontColor=#ffffff;align=center;fillColor=#FF8000;strokeColor=default;strokeWidth=3;fontStyle=1;" parent="1" vertex="1">
          <mxGeometry x="4294.002886297376" y="2242.0033636363637" width="159.9139941690962" height="31.925727272727272" as="geometry" />
        </mxCell>
        <mxCell id="pm2VZgvuKRMVonqQj59v-2" value="OMNI" style="swimlane;horizontal=0;labelBackgroundColor=none;fillColor=#CCE5FF;fontColor=#000000;strokeColor=default;strokeWidth=3;fontSize=24;perimeterSpacing=1;swimlaneLine=0;rounded=1;startSize=62;collapsible=0;" parent="1" vertex="1">
          <mxGeometry x="3736" y="2627.4" width="4334" height="292.65" as="geometry">
            <mxRectangle x="-984" y="2480.4" width="47" height="92" as="alternateBounds" />
          </mxGeometry>
        </mxCell>
        <mxCell id="pm2VZgvuKRMVonqQj59v-3" value="order_reserve" style="rounded=1;whiteSpace=wrap;html=1;fontFamily=Helvetica;fontSize=14;fontColor=#000000;align=center;fillColor=#CCE5FF;strokeColor=default;strokeWidth=3;fontStyle=1;" parent="pm2VZgvuKRMVonqQj59v-2" vertex="1">
          <mxGeometry x="852.7842565597667" y="62.71410051136387" width="159.9139941690962" height="31.925727272727272" as="geometry" />
        </mxCell>
        <mxCell id="pm2VZgvuKRMVonqQj59v-4" style="edgeStyle=orthogonalEdgeStyle;rounded=1;orthogonalLoop=1;jettySize=auto;html=1;entryX=0.5;entryY=0;entryDx=0;entryDy=0;fontSize=24;fontColor=#000000;endArrow=block;endFill=1;endSize=8;strokeWidth=3;" parent="pm2VZgvuKRMVonqQj59v-2" source="pm2VZgvuKRMVonqQj59v-5" target="pm2VZgvuKRMVonqQj59v-6" edge="1">
          <mxGeometry relative="1" as="geometry" />
        </mxCell>
        <mxCell id="pm2VZgvuKRMVonqQj59v-5" value="order_reserve" style="rounded=1;whiteSpace=wrap;html=1;fontFamily=Helvetica;fontSize=14;fontColor=#000000;align=center;fillColor=#CCE5FF;strokeColor=default;strokeWidth=3;fontStyle=1;" parent="pm2VZgvuKRMVonqQj59v-2" vertex="1">
          <mxGeometry x="1876.0942565597666" y="62.714100511363995" width="159.9139941690962" height="31.925727272727272" as="geometry" />
        </mxCell>
        <mxCell id="pm2VZgvuKRMVonqQj59v-6" value="&lt;b&gt;DELETE&lt;/b&gt;" style="shape=parallelogram;perimeter=parallelogramPerimeter;whiteSpace=wrap;html=1;fixedSize=1;fontColor=#000000;fillColor=#CCE5FF;strokeWidth=3;rounded=1;" parent="pm2VZgvuKRMVonqQj59v-2" vertex="1">
          <mxGeometry x="1873.0038775510202" y="177.68187500000022" width="167.23032069970844" height="41.8075" as="geometry" />
        </mxCell>
        <mxCell id="pm2VZgvuKRMVonqQj59v-7" style="edgeStyle=orthogonalEdgeStyle;rounded=1;orthogonalLoop=1;jettySize=auto;html=1;entryX=0.5;entryY=0;entryDx=0;entryDy=0;labelBackgroundColor=default;fontSize=14;fontColor=#000000;endArrow=block;endFill=1;endSize=8;strokeWidth=3;" parent="pm2VZgvuKRMVonqQj59v-2" source="pm2VZgvuKRMVonqQj59v-8" target="pm2VZgvuKRMVonqQj59v-12" edge="1">
          <mxGeometry relative="1" as="geometry" />
        </mxCell>
        <mxCell id="pm2VZgvuKRMVonqQj59v-8" value="order" style="rounded=1;whiteSpace=wrap;html=1;fontFamily=Helvetica;fontSize=14;fontColor=#000000;align=center;fillColor=#CCE5FF;strokeColor=default;strokeWidth=3;fontStyle=1;" parent="pm2VZgvuKRMVonqQj59v-2" vertex="1">
          <mxGeometry x="2418.0042565597664" y="79.5941005113641" width="159.9139941690962" height="31.925727272727272" as="geometry" />
        </mxCell>
        <mxCell id="pm2VZgvuKRMVonqQj59v-9" value="&lt;b&gt;NEW&lt;/b&gt;" style="shape=parallelogram;perimeter=parallelogramPerimeter;whiteSpace=wrap;html=1;fixedSize=1;fontColor=#000000;fillColor=#CCE5FF;strokeWidth=3;rounded=1;" parent="pm2VZgvuKRMVonqQj59v-2" vertex="1">
          <mxGeometry x="2684.00387755102" y="149.82187500000032" width="167.23032069970844" height="41.8075" as="geometry" />
        </mxCell>
        <mxCell id="pm2VZgvuKRMVonqQj59v-10" value="SIM" style="edgeStyle=orthogonalEdgeStyle;rounded=1;orthogonalLoop=1;jettySize=auto;html=1;entryX=0;entryY=0.5;entryDx=0;entryDy=0;labelBackgroundColor=default;fontSize=14;fontColor=#000000;endArrow=block;endFill=1;endSize=8;strokeWidth=3;" parent="pm2VZgvuKRMVonqQj59v-2" source="pm2VZgvuKRMVonqQj59v-12" target="pm2VZgvuKRMVonqQj59v-9" edge="1">
          <mxGeometry x="0.5309" y="1" relative="1" as="geometry">
            <Array as="points">
              <mxPoint x="2624" y="209" />
              <mxPoint x="2624" y="171" />
            </Array>
            <mxPoint as="offset" />
          </mxGeometry>
        </mxCell>
        <mxCell id="pm2VZgvuKRMVonqQj59v-11" value="NÄ€O" style="edgeStyle=orthogonalEdgeStyle;rounded=1;orthogonalLoop=1;jettySize=auto;html=1;entryX=0;entryY=0.5;entryDx=0;entryDy=0;labelBackgroundColor=default;fontSize=14;fontColor=#000000;endArrow=block;endFill=1;endSize=8;strokeWidth=3;" parent="pm2VZgvuKRMVonqQj59v-2" source="pm2VZgvuKRMVonqQj59v-12" target="pm2VZgvuKRMVonqQj59v-13" edge="1">
          <mxGeometry x="0.5311" relative="1" as="geometry">
            <Array as="points">
              <mxPoint x="2624" y="209" />
              <mxPoint x="2624" y="246" />
            </Array>
            <mxPoint as="offset" />
          </mxGeometry>
        </mxCell>
        <mxCell id="pm2VZgvuKRMVonqQj59v-12" value="Pago?" style="rhombus;whiteSpace=wrap;html=1;labelBackgroundColor=none;fontColor=#ffffff;fillColor=#e51400;strokeColor=default;strokeWidth=3;fontSize=14;fontStyle=1;rounded=1;" parent="pm2VZgvuKRMVonqQj59v-2" vertex="1">
          <mxGeometry x="2434.5756997084545" y="149.82218750000038" width="126.77103498542274" height="117.531334375" as="geometry" />
        </mxCell>
        <mxCell id="pm2VZgvuKRMVonqQj59v-13" value="&lt;b&gt;DELETE&lt;/b&gt;" style="shape=parallelogram;perimeter=parallelogramPerimeter;whiteSpace=wrap;html=1;fixedSize=1;fontColor=#000000;fillColor=#CCE5FF;strokeWidth=3;rounded=1;" parent="pm2VZgvuKRMVonqQj59v-2" vertex="1">
          <mxGeometry x="2684.00387755102" y="225.54187500000052" width="167.23032069970844" height="41.8075" as="geometry" />
        </mxCell>
        <mxCell id="pm2VZgvuKRMVonqQj59v-14" style="edgeStyle=orthogonalEdgeStyle;rounded=1;orthogonalLoop=1;jettySize=auto;html=1;entryX=0.5;entryY=1;entryDx=0;entryDy=0;labelBackgroundColor=default;fontSize=14;fontColor=#FFFFFF;endArrow=block;endFill=1;endSize=8;strokeWidth=3;" parent="pm2VZgvuKRMVonqQj59v-2" source="pm2VZgvuKRMVonqQj59v-15" target="pm2VZgvuKRMVonqQj59v-18" edge="1">
          <mxGeometry relative="1" as="geometry" />
        </mxCell>
        <mxCell id="pm2VZgvuKRMVonqQj59v-15" value="&lt;b&gt;ACEITA PEDIDO&lt;/b&gt;" style="rounded=1;whiteSpace=wrap;html=1;fontSize=14;fontColor=#000000;strokeWidth=3;fillColor=#CCE5FF;" parent="pm2VZgvuKRMVonqQj59v-2" vertex="1">
          <mxGeometry x="2984" y="140" width="136" height="36.32" as="geometry" />
        </mxCell>
        <mxCell id="pm2VZgvuKRMVonqQj59v-16" style="edgeStyle=orthogonalEdgeStyle;rounded=1;orthogonalLoop=1;jettySize=auto;html=1;entryX=0.5;entryY=1;entryDx=0;entryDy=0;labelBackgroundColor=default;fontSize=14;fontColor=#FFFFFF;endArrow=block;endFill=1;endSize=8;strokeWidth=3;" parent="pm2VZgvuKRMVonqQj59v-2" source="pm2VZgvuKRMVonqQj59v-17" target="pm2VZgvuKRMVonqQj59v-19" edge="1">
          <mxGeometry relative="1" as="geometry" />
        </mxCell>
        <mxCell id="pm2VZgvuKRMVonqQj59v-17" value="&lt;b&gt;RECUSA PEDIDO&lt;/b&gt;" style="rounded=1;whiteSpace=wrap;html=1;fontSize=14;fontColor=#000000;strokeWidth=3;fillColor=#CCE5FF;" parent="pm2VZgvuKRMVonqQj59v-2" vertex="1">
          <mxGeometry x="3209.62" y="140" width="136" height="36.32" as="geometry" />
        </mxCell>
        <mxCell id="pm2VZgvuKRMVonqQj59v-18" value="&lt;b&gt;BILLED&lt;/b&gt;" style="shape=parallelogram;perimeter=parallelogramPerimeter;whiteSpace=wrap;html=1;fixedSize=1;fontColor=#000000;fillColor=#CCE5FF;strokeWidth=3;rounded=1;" parent="pm2VZgvuKRMVonqQj59v-2" vertex="1">
          <mxGeometry x="2968.3838775510203" y="52.831875000000764" width="167.23032069970844" height="41.8075" as="geometry" />
        </mxCell>
        <mxCell id="pm2VZgvuKRMVonqQj59v-19" value="&lt;b&gt;REJECTED&lt;/b&gt;" style="shape=parallelogram;perimeter=parallelogramPerimeter;whiteSpace=wrap;html=1;fixedSize=1;fontColor=#000000;fillColor=#CCE5FF;strokeWidth=3;rounded=1;" parent="pm2VZgvuKRMVonqQj59v-2" vertex="1">
          <mxGeometry x="3194.00387755102" y="52.831875000000764" width="167.23032069970844" height="41.8075" as="geometry" />
        </mxCell>
        <mxCell id="pm2VZgvuKRMVonqQj59v-20" style="edgeStyle=orthogonalEdgeStyle;rounded=1;orthogonalLoop=1;jettySize=auto;html=1;entryX=0.5;entryY=1;entryDx=0;entryDy=0;labelBackgroundColor=default;fontSize=14;fontColor=#000000;endArrow=block;endFill=1;endSize=8;strokeWidth=3;" parent="pm2VZgvuKRMVonqQj59v-2" source="pm2VZgvuKRMVonqQj59v-21" target="pm2VZgvuKRMVonqQj59v-22" edge="1">
          <mxGeometry relative="1" as="geometry" />
        </mxCell>
        <mxCell id="pm2VZgvuKRMVonqQj59v-21" value="&lt;b&gt;ATUALIZA PEDIDO PARA ENTREGUE&lt;/b&gt;" style="rounded=1;whiteSpace=wrap;html=1;fontSize=14;fontColor=#000000;strokeWidth=3;fillColor=#CCE5FF;" parent="pm2VZgvuKRMVonqQj59v-2" vertex="1">
          <mxGeometry x="3927.62" y="140" width="136" height="50" as="geometry" />
        </mxCell>
        <mxCell id="pm2VZgvuKRMVonqQj59v-22" value="&lt;b&gt;SENT&lt;/b&gt;" style="shape=parallelogram;perimeter=parallelogramPerimeter;whiteSpace=wrap;html=1;fixedSize=1;fontColor=#000000;fillColor=#CCE5FF;strokeWidth=3;rounded=1;" parent="pm2VZgvuKRMVonqQj59v-2" vertex="1">
          <mxGeometry x="3912.00387755102" y="52.83187500000078" width="167.23032069970844" height="41.8075" as="geometry" />
        </mxCell>
        <mxCell id="pm2VZgvuKRMVonqQj59v-23" value="GATEWAY PGTO" style="swimlane;horizontal=0;labelBackgroundColor=none;fillColor=#FAD902;fontColor=#000000;strokeColor=default;strokeWidth=3;fontSize=24;perimeterSpacing=1;swimlaneLine=0;rounded=1;startSize=62;collapsible=0;" parent="1" vertex="1">
          <mxGeometry x="3736" y="2925.06" width="4334" height="292.65" as="geometry" />
        </mxCell>
        <mxCell id="pm2VZgvuKRMVonqQj59v-24" value="payment" style="rounded=1;whiteSpace=wrap;html=1;fontFamily=Helvetica;fontSize=14;fontColor=#000000;align=center;fillColor=#FAD902;strokeColor=default;strokeWidth=3;fontStyle=1;" parent="pm2VZgvuKRMVonqQj59v-23" vertex="1">
          <mxGeometry x="1249.000699708455" y="130.36159090909086" width="159.9139941690962" height="31.925727272727272" as="geometry" />
        </mxCell>
        <mxCell id="pm2VZgvuKRMVonqQj59v-25" value="&lt;b style=&quot;font-size: 14px;&quot;&gt;NOTIFICAÃ‡Ä€O DE PAGAMENTO&lt;/b&gt;" style="rounded=1;whiteSpace=wrap;html=1;fontSize=14;fontColor=#000000;strokeWidth=3;fillColor=#FAD902;" parent="pm2VZgvuKRMVonqQj59v-23" vertex="1">
          <mxGeometry x="2192" y="116.32000000000002" width="186" height="60" as="geometry" />
        </mxCell>
        <mxCell id="pm2VZgvuKRMVonqQj59v-26" style="edgeStyle=orthogonalEdgeStyle;rounded=1;orthogonalLoop=1;jettySize=auto;html=1;entryX=0.5;entryY=0;entryDx=0;entryDy=0;fontColor=#000000;endArrow=block;endFill=1;endSize=8;strokeWidth=3;" parent="1" source="pm2VZgvuKRMVonqQj59v-38" target="pm2VZgvuKRMVonqQj59v-3" edge="1">
          <mxGeometry relative="1" as="geometry" />
        </mxCell>
        <mxCell id="pm2VZgvuKRMVonqQj59v-27" value="FRONTEND" style="swimlane;horizontal=0;labelBackgroundColor=none;fillColor=#3399FF;fontColor=#FFFFFF;strokeColor=default;strokeWidth=3;fontSize=24;perimeterSpacing=1;swimlaneLine=0;rounded=1;startSize=62;labelPosition=center;verticalLabelPosition=middle;align=center;verticalAlign=middle;collapsible=0;" parent="1" vertex="1">
          <mxGeometry x="3736" y="714.49" width="4334" height="292.65" as="geometry" />
        </mxCell>
        <mxCell id="pm2VZgvuKRMVonqQj59v-28" value="TELA DE ENTREGA&lt;br&gt;[Seleciona EndereÃ§o]" style="rounded=1;whiteSpace=wrap;html=1;labelBackgroundColor=none;fontColor=#000000;fillColor=#CCE5FF;strokeColor=default;strokeWidth=3;fontSize=14;fontStyle=1;" parent="pm2VZgvuKRMVonqQj59v-27" vertex="1">
          <mxGeometry x="164.09" y="180" width="170.37" height="59.44" as="geometry" />
        </mxCell>
        <mxCell id="pm2VZgvuKRMVonqQj59v-29" value="TELA DE ENTREGA&lt;br&gt;[Seleciona MÃ©todo]" style="rounded=1;whiteSpace=wrap;html=1;labelBackgroundColor=none;fontColor=#000000;fillColor=#CCE5FF;strokeColor=default;strokeWidth=3;fontSize=14;fontStyle=1;" parent="pm2VZgvuKRMVonqQj59v-27" vertex="1">
          <mxGeometry x="532.0014577259475" y="177.68282517045444" width="170.365889212828" height="61.760129375" as="geometry" />
        </mxCell>
        <mxCell id="pm2VZgvuKRMVonqQj59v-30" value="FINALIZA PEDIDO" style="rounded=1;whiteSpace=wrap;html=1;labelBackgroundColor=none;fontColor=#000000;fillColor=#CCE5FF;strokeColor=default;strokeWidth=3;fontSize=14;fontStyle=1;" parent="pm2VZgvuKRMVonqQj59v-27" vertex="1">
          <mxGeometry x="846.603498542274" y="212.8381818181817" width="170.365889212828" height="26.604772727272724" as="geometry" />
        </mxCell>
        <mxCell id="pm2VZgvuKRMVonqQj59v-31" value="TELA DE ENTREGA&lt;br&gt;[ERRO]" style="rounded=1;whiteSpace=wrap;html=1;labelBackgroundColor=none;fontColor=#000000;fillColor=#EA6B66;strokeColor=default;strokeWidth=3;fontSize=14;fontStyle=1;" parent="pm2VZgvuKRMVonqQj59v-27" vertex="1">
          <mxGeometry x="1047" y="186.3329545454544" width="170.37" height="53.11" as="geometry" />
        </mxCell>
        <mxCell id="pm2VZgvuKRMVonqQj59v-32" value="SFCC" style="swimlane;horizontal=0;labelBackgroundColor=none;fillColor=#0000FF;fontColor=#FFFFFF;strokeColor=default;strokeWidth=3;fontSize=24;perimeterSpacing=1;swimlaneLine=0;rounded=1;startSize=62;collapsible=0;" parent="1" vertex="1">
          <mxGeometry x="3736" y="1240" width="4334" height="352.45" as="geometry">
            <mxRectangle x="-984" y="1250" width="47" height="94" as="alternateBounds" />
          </mxGeometry>
        </mxCell>
        <mxCell id="pm2VZgvuKRMVonqQj59v-33" value="1" style="edgeStyle=orthogonalEdgeStyle;rounded=1;orthogonalLoop=1;jettySize=auto;html=1;entryX=0.5;entryY=0;entryDx=0;entryDy=0;fontSize=14;fontColor=#000000;endArrow=block;endFill=1;endSize=8;strokeWidth=3;labelBackgroundColor=default;" parent="pm2VZgvuKRMVonqQj59v-32" source="pm2VZgvuKRMVonqQj59v-34" target="pm2VZgvuKRMVonqQj59v-41" edge="1">
          <mxGeometry x="-0.3748" relative="1" as="geometry">
            <mxPoint as="offset" />
          </mxGeometry>
        </mxCell>
        <mxCell id="pm2VZgvuKRMVonqQj59v-34" value="submit_shipping" style="rounded=1;whiteSpace=wrap;html=1;fontFamily=Helvetica;fontSize=14;fontColor=#ffffff;align=center;fillColor=#0000FF;strokeColor=default;strokeWidth=3;fontStyle=1;" parent="pm2VZgvuKRMVonqQj59v-32" vertex="1">
          <mxGeometry x="169.3206997084548" y="44.97347551136363" width="159.9139941690962" height="31.925727272727272" as="geometry" />
        </mxCell>
        <mxCell id="pm2VZgvuKRMVonqQj59v-35" value="shipping_method" style="rounded=1;whiteSpace=wrap;html=1;fontFamily=Helvetica;fontSize=14;fontColor=#ffffff;align=center;fillColor=#0000FF;strokeColor=default;strokeWidth=3;fontStyle=1;" parent="pm2VZgvuKRMVonqQj59v-32" vertex="1">
          <mxGeometry x="537.2274052478134" y="74.97347551136363" width="159.9139941690962" height="31.925727272727272" as="geometry" />
        </mxCell>
        <mxCell id="pm2VZgvuKRMVonqQj59v-36" style="edgeStyle=orthogonalEdgeStyle;rounded=1;orthogonalLoop=1;jettySize=auto;html=1;fontColor=#000000;endArrow=block;endFill=1;endSize=8;strokeWidth=3;entryX=0.5;entryY=0;entryDx=0;entryDy=0;" parent="pm2VZgvuKRMVonqQj59v-32" source="pm2VZgvuKRMVonqQj59v-37" target="pm2VZgvuKRMVonqQj59v-38" edge="1">
          <mxGeometry relative="1" as="geometry" />
        </mxCell>
        <mxCell id="pm2VZgvuKRMVonqQj59v-37" value="submit_payment" style="rounded=1;whiteSpace=wrap;html=1;fontFamily=Helvetica;fontSize=14;fontColor=#ffffff;align=center;fillColor=#0000FF;strokeColor=default;strokeWidth=3;fontStyle=1;" parent="pm2VZgvuKRMVonqQj59v-32" vertex="1">
          <mxGeometry x="851.8294460641399" y="78.39191301136363" width="159.9139941690962" height="31.925727272727272" as="geometry" />
        </mxCell>
        <mxCell id="pm2VZgvuKRMVonqQj59v-38" value="MÃ©todo OMNI?" style="rhombus;whiteSpace=wrap;html=1;labelBackgroundColor=none;fontColor=#ffffff;fillColor=#e51400;strokeColor=default;strokeWidth=3;fontSize=14;fontStyle=1;rounded=1;" parent="pm2VZgvuKRMVonqQj59v-32" vertex="1">
          <mxGeometry x="868.3956997084548" y="151.55218749999997" width="126.77103498542274" height="117.531334375" as="geometry" />
        </mxCell>
        <mxCell id="pm2VZgvuKRMVonqQj59v-39" value="Sucesso?" style="rhombus;whiteSpace=wrap;html=1;labelBackgroundColor=none;fontColor=#ffffff;fillColor=#e51400;strokeColor=default;strokeWidth=3;fontSize=14;fontStyle=1;rounded=1;" parent="pm2VZgvuKRMVonqQj59v-32" vertex="1">
          <mxGeometry x="1069.6413994169097" y="35.06604062499995" width="126.77103498542274" height="117.531334375" as="geometry" />
        </mxCell>
        <mxCell id="pm2VZgvuKRMVonqQj59v-40" style="edgeStyle=orthogonalEdgeStyle;rounded=1;orthogonalLoop=1;jettySize=auto;html=1;fontColor=#000000;endArrow=block;endFill=1;endSize=8;strokeWidth=3;entryX=0;entryY=0.5;entryDx=0;entryDy=0;" parent="pm2VZgvuKRMVonqQj59v-32" source="pm2VZgvuKRMVonqQj59v-37" target="pm2VZgvuKRMVonqQj59v-39" edge="1">
          <mxGeometry relative="1" as="geometry">
            <mxPoint x="1055.6413994169097" y="68.22508914772772" as="targetPoint" />
          </mxGeometry>
        </mxCell>
        <mxCell id="pm2VZgvuKRMVonqQj59v-41" value="OMNI habilitado,&lt;br&gt;UF na lista, &lt;br&gt;EndereÃ§o sem lat/lon?" style="rhombus;whiteSpace=wrap;html=1;labelBackgroundColor=none;fontColor=#ffffff;fillColor=#e51400;strokeColor=default;strokeWidth=3;fontSize=14;fontStyle=1;rounded=1;" parent="pm2VZgvuKRMVonqQj59v-32" vertex="1">
          <mxGeometry x="141" y="119.2" width="217" height="173.8" as="geometry" />
        </mxCell>
        <mxCell id="pm2VZgvuKRMVonqQj59v-42" value="ENVIO FATURAMENTO ERP" style="rounded=1;whiteSpace=wrap;html=1;fontFamily=Helvetica;fontSize=14;fontColor=#ffffff;align=center;fillColor=#0000FF;strokeColor=default;strokeWidth=3;fontStyle=1;" parent="pm2VZgvuKRMVonqQj59v-32" vertex="1">
          <mxGeometry x="2634" y="170" width="159.91" height="51.13" as="geometry" />
        </mxCell>
        <mxCell id="pm2VZgvuKRMVonqQj59v-44" value="update_order" style="rounded=1;whiteSpace=wrap;html=1;fontFamily=Helvetica;fontSize=14;fontColor=#ffffff;align=center;fillColor=#0000FF;strokeColor=default;strokeWidth=3;fontStyle=1;" parent="pm2VZgvuKRMVonqQj59v-32" vertex="1">
          <mxGeometry x="2971.99944606414" y="130.36191301136364" width="159.9139941690962" height="31.925727272727272" as="geometry" />
        </mxCell>
        <mxCell id="pm2VZgvuKRMVonqQj59v-46" style="edgeStyle=orthogonalEdgeStyle;rounded=1;orthogonalLoop=1;jettySize=auto;html=1;entryX=0;entryY=0.5;entryDx=0;entryDy=0;labelBackgroundColor=default;fontSize=14;fontColor=#FFFFFF;endArrow=block;endFill=1;endSize=8;strokeWidth=3;" parent="pm2VZgvuKRMVonqQj59v-32" source="pm2VZgvuKRMVonqQj59v-47" target="pm2VZgvuKRMVonqQj59v-51" edge="1">
          <mxGeometry relative="1" as="geometry" />
        </mxCell>
        <mxCell id="pm2VZgvuKRMVonqQj59v-47" value="update_order" style="rounded=1;whiteSpace=wrap;html=1;fontFamily=Helvetica;fontSize=14;fontColor=#ffffff;align=center;fillColor=#0000FF;strokeColor=default;strokeWidth=3;fontStyle=1;" parent="pm2VZgvuKRMVonqQj59v-32" vertex="1">
          <mxGeometry x="3196.99944606414" y="70.20191301136359" width="159.9139941690962" height="31.925727272727272" as="geometry" />
        </mxCell>
        <mxCell id="pm2VZgvuKRMVonqQj59v-49" style="edgeStyle=orthogonalEdgeStyle;rounded=1;orthogonalLoop=1;jettySize=auto;html=1;entryX=0.5;entryY=0;entryDx=0;entryDy=0;labelBackgroundColor=default;fontSize=14;fontColor=#FFFFFF;endArrow=block;endFill=1;endSize=8;strokeWidth=3;" parent="pm2VZgvuKRMVonqQj59v-32" source="pm2VZgvuKRMVonqQj59v-51" target="pm2VZgvuKRMVonqQj59v-53" edge="1">
          <mxGeometry relative="1" as="geometry" />
        </mxCell>
        <mxCell id="pm2VZgvuKRMVonqQj59v-50" value="Click&amp;amp;Collect" style="edgeStyle=orthogonalEdgeStyle;rounded=1;orthogonalLoop=1;jettySize=auto;html=1;entryX=0.5;entryY=0;entryDx=0;entryDy=0;labelBackgroundColor=default;fontSize=14;fontColor=#000000;endArrow=block;endFill=1;endSize=8;strokeWidth=3;" parent="pm2VZgvuKRMVonqQj59v-32" source="pm2VZgvuKRMVonqQj59v-51" target="pm2VZgvuKRMVonqQj59v-55" edge="1">
          <mxGeometry relative="1" as="geometry" />
        </mxCell>
        <mxCell id="pm2VZgvuKRMVonqQj59v-51" value="Super Expressa?" style="rhombus;whiteSpace=wrap;html=1;labelBackgroundColor=none;fontColor=#ffffff;fillColor=#e51400;strokeColor=default;strokeWidth=3;fontSize=14;fontStyle=1;rounded=1;" parent="pm2VZgvuKRMVonqQj59v-32" vertex="1">
          <mxGeometry x="3483.9956997084546" y="27.562187500000164" width="126.77103498542274" height="117.531334375" as="geometry" />
        </mxCell>
        <mxCell id="pm2VZgvuKRMVonqQj59v-52" style="edgeStyle=orthogonalEdgeStyle;rounded=1;orthogonalLoop=1;jettySize=auto;html=1;labelBackgroundColor=default;fontSize=14;fontColor=#FFFFFF;endArrow=block;endFill=1;endSize=8;strokeWidth=3;" parent="pm2VZgvuKRMVonqQj59v-32" source="pm2VZgvuKRMVonqQj59v-53" target="pm2VZgvuKRMVonqQj59v-54" edge="1">
          <mxGeometry relative="1" as="geometry" />
        </mxCell>
        <mxCell id="pm2VZgvuKRMVonqQj59v-53" value="DESMARCA PEDIDO OMNI&lt;br&gt;MUDA PARA ENTREGA NORMAL" style="rounded=1;whiteSpace=wrap;html=1;fontFamily=Helvetica;fontSize=14;fontColor=#ffffff;align=center;fillColor=#0000FF;strokeColor=default;strokeWidth=3;fontStyle=1;" parent="pm2VZgvuKRMVonqQj59v-32" vertex="1">
          <mxGeometry x="3446.09" y="183.6" width="202.58" height="70.57" as="geometry" />
        </mxCell>
        <mxCell id="pm2VZgvuKRMVonqQj59v-54" value="ENVIO ERP" style="rounded=1;whiteSpace=wrap;html=1;fontFamily=Helvetica;fontSize=14;fontColor=#ffffff;align=center;fillColor=#0000FF;strokeColor=default;strokeWidth=3;fontStyle=1;" parent="pm2VZgvuKRMVonqQj59v-32" vertex="1">
          <mxGeometry x="3467.43" y="290" width="159.91" height="40" as="geometry" />
        </mxCell>
        <mxCell id="pm2VZgvuKRMVonqQj59v-55" value="CANCELA PEDIDO" style="rounded=1;whiteSpace=wrap;html=1;fontFamily=Helvetica;fontSize=14;fontColor=#ffffff;align=center;fillColor=#0000FF;strokeColor=default;strokeWidth=3;fontStyle=1;" parent="pm2VZgvuKRMVonqQj59v-32" vertex="1">
          <mxGeometry x="3694" y="183.59999999999997" width="202.58" height="70.57" as="geometry" />
        </mxCell>
        <mxCell id="pm2VZgvuKRMVonqQj59v-56" value="update_order" style="rounded=1;whiteSpace=wrap;html=1;fontFamily=Helvetica;fontSize=14;fontColor=#ffffff;align=center;fillColor=#0000FF;strokeColor=default;strokeWidth=3;fontStyle=1;" parent="pm2VZgvuKRMVonqQj59v-32" vertex="1">
          <mxGeometry x="3914.99944606414" y="87.2719130113635" width="159.9139941690962" height="31.925727272727272" as="geometry" />
        </mxCell>
        <mxCell id="pm2VZgvuKRMVonqQj59v-58" value="FORCE" style="swimlane;horizontal=0;labelBackgroundColor=none;fillColor=#00994D;fontColor=#FFFFFF;strokeColor=default;strokeWidth=3;fontSize=24;perimeterSpacing=1;swimlaneLine=0;rounded=1;startSize=62;collapsible=0;" parent="1" vertex="1">
          <mxGeometry x="3736" y="1592.45" width="4334" height="292.65" as="geometry">
            <mxRectangle x="-984" y="1602.4475" width="50" height="110" as="alternateBounds" />
          </mxGeometry>
        </mxCell>
        <mxCell id="pm2VZgvuKRMVonqQj59v-59" value="getPostalCode" style="rounded=1;whiteSpace=wrap;html=1;fontFamily=Helvetica;fontSize=14;fontColor=#ffffff;align=center;fillColor=#00994D;strokeColor=default;strokeWidth=3;fontStyle=1;" parent="pm2VZgvuKRMVonqQj59v-58" vertex="1">
          <mxGeometry x="569.3206997084549" y="55.51452863636362" width="159.9139941690962" height="31.925727272727272" as="geometry" />
        </mxCell>
        <mxCell id="pm2VZgvuKRMVonqQj59v-60" value="INTELLIPOST" style="swimlane;horizontal=0;labelBackgroundColor=none;fillColor=#FAD902;fontColor=#000000;strokeColor=default;strokeWidth=3;fontSize=24;perimeterSpacing=1;swimlaneLine=0;rounded=1;startSize=62;collapsible=0;" parent="1" vertex="1">
          <mxGeometry x="3736" y="1885.1" width="4334" height="292.65" as="geometry" />
        </mxCell>
        <mxCell id="pm2VZgvuKRMVonqQj59v-61" value="quote_by_product" style="rounded=1;whiteSpace=wrap;html=1;fontFamily=Helvetica;fontSize=14;fontColor=#000000;align=center;fillColor=#FAD902;strokeColor=default;strokeWidth=3;fontStyle=1;" parent="pm2VZgvuKRMVonqQj59v-60" vertex="1">
          <mxGeometry x="569.3206997084549" y="106.4190909090909" width="159.9139941690962" height="31.925727272727272" as="geometry" />
        </mxCell>
        <mxCell id="pm2VZgvuKRMVonqQj59v-62" value="MULESOFT" style="swimlane;horizontal=0;labelBackgroundColor=none;fillColor=#999999;fontColor=#FFFFFF;strokeColor=default;strokeWidth=3;fontSize=24;perimeterSpacing=1;swimlaneLine=0;rounded=1;startSize=62;collapsible=0;" parent="1" vertex="1">
          <mxGeometry x="3736" y="1007.1399999999999" width="4334" height="232.86" as="geometry" />
        </mxCell>
        <mxCell id="pm2VZgvuKRMVonqQj59v-63" value="/shipping/set-address/" style="rounded=1;whiteSpace=wrap;html=1;fontFamily=Helvetica;fontSize=14;fontColor=#ffffff;align=center;fillColor=#999999;strokeColor=default;strokeWidth=3;fontStyle=1;" parent="pm2VZgvuKRMVonqQj59v-62" vertex="1">
          <mxGeometry x="169.3206997084548" y="125.42535051136362" width="159.9139941690962" height="31.925727272727272" as="geometry" />
        </mxCell>
        <mxCell id="pm2VZgvuKRMVonqQj59v-64" value="/shipping/set-method/basket/" style="rounded=1;whiteSpace=wrap;html=1;fontFamily=Helvetica;fontSize=14;fontColor=#ffffff;align=center;fillColor=#999999;strokeColor=default;strokeWidth=3;fontStyle=1;" parent="pm2VZgvuKRMVonqQj59v-62" vertex="1">
          <mxGeometry x="537.2274052478134" y="125.42535051136362" width="159.9139941690962" height="31.925727272727272" as="geometry" />
        </mxCell>
        <mxCell id="pm2VZgvuKRMVonqQj59v-65" value="orders/submit/{basket}" style="rounded=1;whiteSpace=wrap;html=1;fontFamily=Helvetica;fontSize=14;fontColor=#ffffff;align=center;fillColor=#999999;strokeColor=default;strokeWidth=3;fontStyle=1;" parent="pm2VZgvuKRMVonqQj59v-62" vertex="1">
          <mxGeometry x="851.8294460641399" y="125.42535051136362" width="159.9139941690962" height="31.925727272727272" as="geometry" />
        </mxCell>
        <mxCell id="pm2VZgvuKRMVonqQj59v-66" style="edgeStyle=orthogonalEdgeStyle;rounded=1;orthogonalLoop=1;jettySize=auto;html=1;fontColor=#000000;strokeWidth=3;endArrow=block;endFill=1;strokeColor=default;fontSize=14;fontStyle=1;endSize=8;" parent="1" source="pm2VZgvuKRMVonqQj59v-28" edge="1">
          <mxGeometry relative="1" as="geometry">
            <mxPoint x="3985.800291545187" y="1132.5650000000005" as="targetPoint" />
          </mxGeometry>
        </mxCell>
        <mxCell id="pm2VZgvuKRMVonqQj59v-67" style="edgeStyle=orthogonalEdgeStyle;rounded=1;orthogonalLoop=1;jettySize=auto;html=1;entryX=0.5;entryY=0;entryDx=0;entryDy=0;fontSize=14;fontColor=#000000;endArrow=block;endFill=1;strokeColor=default;strokeWidth=3;endSize=8;" parent="1" source="pm2VZgvuKRMVonqQj59v-29" target="pm2VZgvuKRMVonqQj59v-64" edge="1">
          <mxGeometry relative="1" as="geometry" />
        </mxCell>
        <mxCell id="pm2VZgvuKRMVonqQj59v-68" style="edgeStyle=orthogonalEdgeStyle;rounded=1;orthogonalLoop=1;jettySize=auto;html=1;entryX=0.5;entryY=0;entryDx=0;entryDy=0;fontSize=14;fontColor=#000000;endArrow=block;endFill=1;strokeColor=default;strokeWidth=3;endSize=8;" parent="1" source="pm2VZgvuKRMVonqQj59v-64" target="pm2VZgvuKRMVonqQj59v-35" edge="1">
          <mxGeometry relative="1" as="geometry" />
        </mxCell>
        <mxCell id="pm2VZgvuKRMVonqQj59v-69" style="edgeStyle=orthogonalEdgeStyle;rounded=1;orthogonalLoop=1;jettySize=auto;html=1;fontSize=14;fontColor=#000000;endArrow=block;endFill=1;strokeColor=default;strokeWidth=3;endSize=8;" parent="1" source="pm2VZgvuKRMVonqQj59v-63" target="pm2VZgvuKRMVonqQj59v-34" edge="1">
          <mxGeometry relative="1" as="geometry" />
        </mxCell>
        <mxCell id="pm2VZgvuKRMVonqQj59v-70" style="edgeStyle=orthogonalEdgeStyle;rounded=1;orthogonalLoop=1;jettySize=auto;html=1;entryX=0.5;entryY=0;entryDx=0;entryDy=0;fontColor=#000000;strokeWidth=3;endArrow=block;endFill=1;endSize=8;" parent="1" source="pm2VZgvuKRMVonqQj59v-30" target="pm2VZgvuKRMVonqQj59v-65" edge="1">
          <mxGeometry relative="1" as="geometry" />
        </mxCell>
        <mxCell id="pm2VZgvuKRMVonqQj59v-71" style="edgeStyle=orthogonalEdgeStyle;rounded=1;orthogonalLoop=1;jettySize=auto;html=1;entryX=0.5;entryY=0;entryDx=0;entryDy=0;fontColor=#000000;strokeWidth=3;endArrow=block;endFill=1;endSize=8;" parent="1" source="pm2VZgvuKRMVonqQj59v-65" target="pm2VZgvuKRMVonqQj59v-37" edge="1">
          <mxGeometry relative="1" as="geometry" />
        </mxCell>
        <mxCell id="pm2VZgvuKRMVonqQj59v-72" style="edgeStyle=orthogonalEdgeStyle;rounded=1;orthogonalLoop=1;jettySize=auto;html=1;entryX=0.5;entryY=1;entryDx=0;entryDy=0;fontSize=24;fontColor=#000000;endArrow=block;endFill=1;endSize=8;strokeWidth=3;exitX=0.5;exitY=0;exitDx=0;exitDy=0;" parent="1" source="pm2VZgvuKRMVonqQj59v-39" target="pm2VZgvuKRMVonqQj59v-31" edge="1">
          <mxGeometry relative="1" as="geometry">
            <mxPoint x="4896.186443148688" y="947.6029545454544" as="targetPoint" />
          </mxGeometry>
        </mxCell>
        <mxCell id="pm2VZgvuKRMVonqQj59v-73" style="edgeStyle=orthogonalEdgeStyle;rounded=1;orthogonalLoop=1;jettySize=auto;html=1;entryX=0.5;entryY=0;entryDx=0;entryDy=0;fontSize=24;fontColor=#000000;endArrow=block;endFill=1;endSize=8;strokeWidth=3;" parent="1" source="pm2VZgvuKRMVonqQj59v-39" target="pm2VZgvuKRMVonqQj59v-24" edge="1">
          <mxGeometry relative="1" as="geometry" />
        </mxCell>
        <mxCell id="pm2VZgvuKRMVonqQj59v-74" style="edgeStyle=orthogonalEdgeStyle;rounded=1;orthogonalLoop=1;jettySize=auto;html=1;fontSize=24;fontColor=#000000;endArrow=block;endFill=1;endSize=8;strokeWidth=3;entryX=0.5;entryY=0;entryDx=0;entryDy=0;" parent="1" target="pm2VZgvuKRMVonqQj59v-5" edge="1">
          <mxGeometry relative="1" as="geometry">
            <mxPoint x="5579" y="2390" as="targetPoint" />
            <mxPoint x="5534.761701046482" y="1435.7567567567567" as="sourcePoint" />
          </mxGeometry>
        </mxCell>
        <mxCell id="pm2VZgvuKRMVonqQj59v-75" style="edgeStyle=orthogonalEdgeStyle;rounded=1;orthogonalLoop=1;jettySize=auto;html=1;entryX=0.5;entryY=1;entryDx=0;entryDy=0;fontSize=24;fontColor=#000000;endArrow=block;endFill=1;endSize=8;strokeWidth=3;" parent="1" source="pm2VZgvuKRMVonqQj59v-77" target="pm2VZgvuKRMVonqQj59v-81" edge="1">
          <mxGeometry relative="1" as="geometry" />
        </mxCell>
        <mxCell id="pm2VZgvuKRMVonqQj59v-76" style="edgeStyle=orthogonalEdgeStyle;rounded=1;orthogonalLoop=1;jettySize=auto;html=1;entryX=0.5;entryY=1;entryDx=0;entryDy=0;fontSize=24;fontColor=#000000;endArrow=block;endFill=1;endSize=8;strokeWidth=3;" parent="1" source="pm2VZgvuKRMVonqQj59v-77" target="pm2VZgvuKRMVonqQj59v-82" edge="1">
          <mxGeometry relative="1" as="geometry" />
        </mxCell>
        <mxCell id="pm2VZgvuKRMVonqQj59v-77" value="Sucesso?" style="rhombus;whiteSpace=wrap;html=1;labelBackgroundColor=none;fontColor=#ffffff;fillColor=#e51400;strokeColor=default;strokeWidth=3;fontSize=14;fontStyle=1;rounded=1;" parent="1" vertex="1">
          <mxGeometry x="5409.001399416909" y="1377.001040625" width="126.77103498542274" height="117.531334375" as="geometry" />
        </mxCell>
        <mxCell id="pm2VZgvuKRMVonqQj59v-78" style="edgeStyle=orthogonalEdgeStyle;rounded=1;orthogonalLoop=1;jettySize=auto;html=1;entryX=0;entryY=0.5;entryDx=0;entryDy=0;fontSize=24;fontColor=#000000;endArrow=block;endFill=1;endSize=8;strokeWidth=3;" parent="1" source="pm2VZgvuKRMVonqQj59v-79" target="pm2VZgvuKRMVonqQj59v-77" edge="1">
          <mxGeometry relative="1" as="geometry" />
        </mxCell>
        <mxCell id="pm2VZgvuKRMVonqQj59v-79" value="submit_order" style="rounded=1;whiteSpace=wrap;html=1;fontFamily=Helvetica;fontSize=14;fontColor=#ffffff;align=center;fillColor=#0000FF;strokeColor=default;strokeWidth=3;fontStyle=1;" parent="1" vertex="1">
          <mxGeometry x="5179.99944606414" y="1419.9969130113636" width="159.9139941690962" height="31.925727272727272" as="geometry" />
        </mxCell>
        <mxCell id="pm2VZgvuKRMVonqQj59v-80" style="edgeStyle=orthogonalEdgeStyle;rounded=1;orthogonalLoop=1;jettySize=auto;html=1;fontSize=24;fontColor=#000000;endArrow=block;endFill=1;endSize=8;strokeWidth=3;entryX=0.5;entryY=1;entryDx=0;entryDy=0;" parent="1" source="pm2VZgvuKRMVonqQj59v-24" target="pm2VZgvuKRMVonqQj59v-79" edge="1">
          <mxGeometry relative="1" as="geometry">
            <mxPoint x="5270" y="1481.5384615384614" as="targetPoint" />
          </mxGeometry>
        </mxCell>
        <mxCell id="pm2VZgvuKRMVonqQj59v-81" value="TELA DE PAGAMENTO&lt;br&gt;[ERRO]" style="rounded=1;whiteSpace=wrap;html=1;labelBackgroundColor=none;fontColor=#000000;fillColor=#EA6B66;strokeColor=default;strokeWidth=3;fontSize=14;fontStyle=1;" parent="1" vertex="1">
          <mxGeometry x="5607.2" y="900.8229545454544" width="170.37" height="53.11" as="geometry" />
        </mxCell>
        <mxCell id="pm2VZgvuKRMVonqQj59v-82" value="PEDIDO FINALIZADO" style="rounded=1;whiteSpace=wrap;html=1;labelBackgroundColor=none;fontColor=#000000;fillColor=#00994D;strokeColor=default;strokeWidth=3;fontSize=14;fontStyle=1;" parent="1" vertex="1">
          <mxGeometry x="5387.773498542274" y="927.3281818181817" width="170.365889212828" height="26.604772727272724" as="geometry" />
        </mxCell>
        <mxCell id="pm2VZgvuKRMVonqQj59v-83" style="edgeStyle=orthogonalEdgeStyle;rounded=1;orthogonalLoop=1;jettySize=auto;html=1;entryX=0;entryY=0.5;entryDx=0;entryDy=0;labelBackgroundColor=default;fontSize=14;fontColor=#000000;endArrow=block;endFill=1;endSize=8;strokeWidth=3;" parent="1" source="pm2VZgvuKRMVonqQj59v-84" target="pm2VZgvuKRMVonqQj59v-88" edge="1">
          <mxGeometry relative="1" as="geometry" />
        </mxCell>
        <mxCell id="pm2VZgvuKRMVonqQj59v-84" value="update_payment" style="rounded=1;whiteSpace=wrap;html=1;fontFamily=Helvetica;fontSize=14;fontColor=#ffffff;align=center;fillColor=#0000FF;strokeColor=default;strokeWidth=3;fontStyle=1;" parent="1" vertex="1">
          <mxGeometry x="5939.99944606414" y="1419.9969130113636" width="159.9139941690962" height="31.925727272727272" as="geometry" />
        </mxCell>
        <mxCell id="pm2VZgvuKRMVonqQj59v-85" style="edgeStyle=orthogonalEdgeStyle;rounded=1;orthogonalLoop=1;jettySize=auto;html=1;fontSize=14;fontColor=#000000;endArrow=block;endFill=1;endSize=8;strokeWidth=3;entryX=0.5;entryY=1;entryDx=0;entryDy=0;" parent="1" source="pm2VZgvuKRMVonqQj59v-25" target="pm2VZgvuKRMVonqQj59v-84" edge="1">
          <mxGeometry relative="1" as="geometry">
            <mxPoint x="6030" y="1610" as="targetPoint" />
          </mxGeometry>
        </mxCell>
        <mxCell id="pm2VZgvuKRMVonqQj59v-86" value="SIM" style="edgeStyle=orthogonalEdgeStyle;rounded=1;orthogonalLoop=1;jettySize=auto;html=1;entryX=0.5;entryY=0;entryDx=0;entryDy=0;labelBackgroundColor=default;fontSize=14;fontColor=#000000;endArrow=block;endFill=1;endSize=8;strokeWidth=3;" parent="1" source="pm2VZgvuKRMVonqQj59v-88" target="pm2VZgvuKRMVonqQj59v-8" edge="1">
          <mxGeometry x="-0.9142" y="1" relative="1" as="geometry">
            <mxPoint as="offset" />
          </mxGeometry>
        </mxCell>
        <mxCell id="pm2VZgvuKRMVonqQj59v-87" value="NÄ€O" style="edgeStyle=orthogonalEdgeStyle;rounded=1;orthogonalLoop=1;jettySize=auto;html=1;entryX=0;entryY=0.5;entryDx=0;entryDy=0;labelBackgroundColor=default;fontSize=14;fontColor=#000000;endArrow=block;endFill=1;endSize=8;strokeWidth=3;" parent="1" source="pm2VZgvuKRMVonqQj59v-88" target="pm2VZgvuKRMVonqQj59v-42" edge="1">
          <mxGeometry relative="1" as="geometry" />
        </mxCell>
        <mxCell id="pm2VZgvuKRMVonqQj59v-88" value="Pedido OMNI?" style="rhombus;whiteSpace=wrap;html=1;labelBackgroundColor=none;fontColor=#ffffff;fillColor=#e51400;strokeColor=default;strokeWidth=3;fontSize=14;fontStyle=1;rounded=1;" parent="1" vertex="1">
          <mxGeometry x="6169.995699708455" y="1377.1971875000002" width="126.77103498542274" height="117.531334375" as="geometry" />
        </mxCell>
        <mxCell id="pm2VZgvuKRMVonqQj59v-89" value="CloudSearch" style="swimlane;horizontal=0;fontSize=14;fontColor=#FFFFFF;strokeWidth=3;fillColor=#FF8000;rounded=1;swimlaneLine=0;glass=0;shadow=0;startSize=58;collapsible=0;" parent="1" vertex="1">
          <mxGeometry x="3799" y="2177.75" width="4271" height="146.13" as="geometry" />
        </mxCell>
        <mxCell id="pm2VZgvuKRMVonqQj59v-90" value="GEOCODE" style="swimlane;horizontal=0;fontSize=14;fontColor=#FFFFFF;strokeWidth=3;fillColor=#FF8000;rounded=1;swimlaneLine=0;startSize=58;collapsible=0;" parent="1" vertex="1">
          <mxGeometry x="3799" y="2323.88" width="4271" height="146.13" as="geometry" />
        </mxCell>
        <mxCell id="pm2VZgvuKRMVonqQj59v-91" value="geocoding_api" style="rounded=1;whiteSpace=wrap;html=1;fontFamily=Helvetica;fontSize=14;fontColor=#ffffff;align=center;fillColor=#FF8000;strokeColor=default;strokeWidth=3;fontStyle=1;" parent="pm2VZgvuKRMVonqQj59v-90" vertex="1">
          <mxGeometry x="107.002886297376" y="57.105863636362756" width="159.9139941690962" height="31.925727272727272" as="geometry" />
        </mxCell>
        <mxCell id="pm2VZgvuKRMVonqQj59v-92" value="AWS" style="swimlane;horizontal=0;labelBackgroundColor=none;fillColor=#FF8000;fontColor=#FFFFFF;strokeColor=default;strokeWidth=3;fontSize=24;perimeterSpacing=1;swimlaneLine=0;rounded=1;startSize=62;collapsible=0;" parent="1" vertex="1">
          <mxGeometry x="3736" y="2177.75" width="4334" height="450.25" as="geometry" />
        </mxCell>
        <mxCell id="pm2VZgvuKRMVonqQj59v-93" value="Delivery" style="swimlane;horizontal=0;fontSize=14;fontColor=#FFFFFF;strokeWidth=3;fillColor=#FF8000;rounded=1;swimlaneLine=0;startSize=58;collapsible=0;" parent="pm2VZgvuKRMVonqQj59v-92" vertex="1">
          <mxGeometry x="64" y="293.25" width="4265" height="156.75" as="geometry" />
        </mxCell>
        <mxCell id="pm2VZgvuKRMVonqQj59v-94" value="" style="edgeStyle=orthogonalEdgeStyle;rounded=1;orthogonalLoop=1;jettySize=auto;html=1;entryX=0.5;entryY=0;entryDx=0;entryDy=0;fontSize=14;fontColor=#FFFFFF;endArrow=block;endFill=1;endSize=8;strokeWidth=3;textDirection=rtl;" parent="1" source="pm2VZgvuKRMVonqQj59v-41" target="pm2VZgvuKRMVonqQj59v-91" edge="1">
          <mxGeometry relative="1" as="geometry" />
        </mxCell>
        <mxCell id="pm2VZgvuKRMVonqQj59v-95" style="edgeStyle=orthogonalEdgeStyle;rounded=1;orthogonalLoop=1;jettySize=auto;html=1;entryX=0.5;entryY=1;entryDx=0;entryDy=0;labelBackgroundColor=default;fontSize=14;fontColor=#FFFFFF;endArrow=block;endFill=1;endSize=8;strokeWidth=3;" parent="1" source="pm2VZgvuKRMVonqQj59v-18" target="pm2VZgvuKRMVonqQj59v-44" edge="1">
          <mxGeometry relative="1" as="geometry" />
        </mxCell>
        <mxCell id="pm2VZgvuKRMVonqQj59v-96" style="edgeStyle=orthogonalEdgeStyle;rounded=1;orthogonalLoop=1;jettySize=auto;html=1;labelBackgroundColor=default;fontSize=14;fontColor=#FFFFFF;endArrow=block;endFill=1;endSize=8;strokeWidth=3;entryX=0.5;entryY=1;entryDx=0;entryDy=0;" parent="1" source="pm2VZgvuKRMVonqQj59v-19" target="pm2VZgvuKRMVonqQj59v-47" edge="1">
          <mxGeometry relative="1" as="geometry">
            <mxPoint x="7060" y="1490" as="targetPoint" />
          </mxGeometry>
        </mxCell>
        <mxCell id="pm2VZgvuKRMVonqQj59v-97" style="edgeStyle=orthogonalEdgeStyle;rounded=1;orthogonalLoop=1;jettySize=auto;html=1;labelBackgroundColor=default;fontSize=14;fontColor=#000000;endArrow=block;endFill=1;endSize=8;strokeWidth=3;entryX=0.5;entryY=1;entryDx=0;entryDy=0;" parent="1" source="pm2VZgvuKRMVonqQj59v-22" target="pm2VZgvuKRMVonqQj59v-56" edge="1">
          <mxGeometry relative="1" as="geometry">
            <mxPoint x="7913.619037900875" y="1450" as="targetPoint" />
          </mxGeometry>
        </mxCell>
        <mxCell id="pm2VZgvuKRMVonqQj59v-98" value="ENTREGA" style="swimlane;fontSize=22;fontColor=#000000;strokeWidth=3;fillColor=#FAD902;strokeColor=#FAD902;rounded=1;startSize=36;collapsible=0;" parent="1" vertex="1">
          <mxGeometry x="3796" y="674" width="716" height="1951" as="geometry" />
        </mxCell>
        <mxCell id="pm2VZgvuKRMVonqQj59v-99" value="delivery_api" style="rounded=1;whiteSpace=wrap;html=1;fontFamily=Helvetica;fontSize=14;fontColor=#ffffff;align=center;fillColor=#FF8000;strokeColor=default;strokeWidth=3;fontStyle=1;" parent="pm2VZgvuKRMVonqQj59v-98" vertex="1">
          <mxGeometry x="298.0028862973759" y="1862.9958636363626" width="159.9139941690962" height="31.925727272727272" as="geometry" />
        </mxCell>
        <mxCell id="pm2VZgvuKRMVonqQj59v-100" value="PAGAMENTO" style="swimlane;fontSize=22;fontColor=#000000;strokeWidth=3;fillColor=#3399FF;strokeColor=#3399FF;rounded=1;startSize=36;collapsible=0;" parent="1" vertex="1">
          <mxGeometry x="4517" y="675" width="1287" height="2322" as="geometry" />
        </mxCell>
        <mxCell id="pm2VZgvuKRMVonqQj59v-101" value="POST PROCESSING" style="swimlane;fontSize=22;fontColor=#000000;strokeWidth=3;fillColor=#FF8000;strokeColor=#FF8000;rounded=1;startSize=39;collapsible=0;" parent="1" vertex="1">
          <mxGeometry x="5809" y="673" width="2082" height="2324" as="geometry" />
        </mxCell>
        <mxCell id="pm2VZgvuKRMVonqQj59v-102" value="Malha Omni v2" style="text;html=1;strokeColor=none;fillColor=none;align=center;verticalAlign=middle;whiteSpace=wrap;rounded=1;fontSize=58;fontColor=#000000;labelPosition=center;verticalLabelPosition=middle;fontStyle=1;strokeWidth=3;" parent="1" vertex="1">
          <mxGeometry x="3786" y="606" width="564" height="50" as="geometry" />
        </mxCell>
        <mxCell id="pm2VZgvuKRMVonqQj59v-103" style="edgeStyle=orthogonalEdgeStyle;rounded=0;orthogonalLoop=1;jettySize=auto;html=1;entryX=0.5;entryY=0;entryDx=0;entryDy=0;strokeWidth=3;endArrow=block;endFill=1;" parent="1" source="pm2VZgvuKRMVonqQj59v-34" target="pm2VZgvuKRMVonqQj59v-99" edge="1">
          <mxGeometry relative="1" as="geometry" />
        </mxCell>
        <mxCell id="pm2VZgvuKRMVonqQj59v-104" style="edgeStyle=orthogonalEdgeStyle;rounded=0;orthogonalLoop=1;jettySize=auto;html=1;entryX=0.5;entryY=1;entryDx=0;entryDy=0;strokeWidth=3;endArrow=block;endFill=1;" parent="1" source="pm2VZgvuKRMVonqQj59v-99" target="pm2VZgvuKRMVonqQj59v-1" edge="1">
          <mxGeometry relative="1" as="geometry" />
        </mxCell>
        <mxCell id="pm2VZgvuKRMVonqQj59v-105" style="edgeStyle=orthogonalEdgeStyle;rounded=0;orthogonalLoop=1;jettySize=auto;html=1;entryX=0;entryY=0.5;entryDx=0;entryDy=0;strokeWidth=3;endArrow=block;endFill=1;" parent="1" source="pm2VZgvuKRMVonqQj59v-99" target="pm2VZgvuKRMVonqQj59v-59" edge="1">
          <mxGeometry relative="1" as="geometry" />
        </mxCell>
        <mxCell id="pm2VZgvuKRMVonqQj59v-106" style="edgeStyle=orthogonalEdgeStyle;rounded=0;orthogonalLoop=1;jettySize=auto;html=1;entryX=0;entryY=0.5;entryDx=0;entryDy=0;strokeWidth=3;endArrow=block;endFill=1;" parent="1" source="pm2VZgvuKRMVonqQj59v-99" target="pm2VZgvuKRMVonqQj59v-61" edge="1">
          <mxGeometry relative="1" as="geometry">
            <Array as="points">
              <mxPoint x="4279" y="2553" />
              <mxPoint x="4279" y="2007" />
            </Array>
          </mxGeometry>
        </mxCell>
        <mxCell id="NVsQzXoIhrTHylYyWKg5-1" style="edgeStyle=orthogonalEdgeStyle;rounded=0;orthogonalLoop=1;jettySize=auto;html=1;entryX=0.75;entryY=0;entryDx=0;entryDy=0;strokeWidth=3;endArrow=block;endFill=1;" edge="1" parent="1" source="pm2VZgvuKRMVonqQj59v-64" target="pm2VZgvuKRMVonqQj59v-99">
          <mxGeometry relative="1" as="geometry" />
        </mxCell>
      </root>
    </mxGraphModel>
  </diagram>
</mxfile>
